<?xml version="1.0" standalone="no"?><!DOCTYPE svg PUBLIC "-//W3C//DTD SVG 1.1//EN" "http://www.w3.org/Graphics/SVG/1.1/DTD/svg11.dtd"><svg t="1612164525560" class="icon" viewBox="0 0 1024 1024" version="1.1" xmlns="http://www.w3.org/2000/svg" p-id="6153" xmlns:xlink="http://www.w3.org/1999/xlink" width="35" height="35"><defs><style type="text/css"></style></defs><path d="M421.016794 526.943275c32.811778-155.044106-69.613232-250.429161-69.613232-250.429161-36.610373 127.018338 69.613232 250.429161 69.613232 250.429161M67.521354 575.038471c131.765331 65.105339 336.632359-19.920365 336.632359-19.920365-132.415604-37.368692-336.632359 19.920365-336.632359 19.920365M38.015964 317.15318c87.58778 167.893502 370.392536 230.97099 370.392536 230.970989C310.67646 387.774835 38.015964 317.15318 38.015964 317.15318" p-id="6154"></path><path d="M425.238567 460.697457v14.105923c7.452129 43.575298 11.582864 91.967619 11.582864 142.999049 0 51.028428-4.242782 99.419749-11.582864 143.001049v14.100921h118.914935c-9.058804-47.12779-14.21797-100.454183-14.21797-157.10197 0-56.651789 5.159166-110.089229 14.21797-157.104972H425.238567zM935.117676 138.057974S687.875854 274.752375 632.489596 455.479266c0 0.113047 258.933732-131.649282 302.62808-317.421292M638.338052 461.329722s219.829311 32.337579 331.639263-63.990871c-0.001-0.001-212.263134-5.272214-331.639263 63.990871" p-id="6155"></path><path d="M579.794468 466.547914v14.100921c7.457131 43.581301 11.581863 91.972621 11.581864 142.999048 0 51.03343-4.125732 99.424751-11.581864 143.00105v14.105923h118.920938c-9.057804-47.132792-14.21797-100.454183-14.217971-157.106973 0-56.647788 5.160167-110.086228 14.217971-157.099969H579.794468zM620.904731 176.130961s-75.915879 118.572791-5.849456 261.915984c0 0 72.708532-146.894684 5.849456-261.915984" p-id="6156"></path></svg>